<?xml version="1.0" encoding="UTF-8" standalone="no"?>
<!-- Created with Inkscape (http://www.inkscape.org/) -->

<svg
   width="9.5139866mm"
   height="25.618624mm"
   viewBox="0 0 9.5139866 25.618624"
   version="1.1"
   id="svg1"
   xmlns="http://www.w3.org/2000/svg"
   xmlns:svg="http://www.w3.org/2000/svg">
  <defs
     id="defs1" />
  <g
     id="layer1"
     transform="translate(-82.60179,-97.972738)">
    <path
       style="font-weight:bold;font-stretch:condensed;font-size:22.5778px;font-family:'Arial Narrow';-inkscape-font-specification:'Arial Narrow Bold Condensed';letter-spacing:-0.484188px;word-spacing:0px;stroke-width:2.17355;stroke-linejoin:round"
       d="M 88.433656,110.13255 H 86.129574 L 86.11855,109.427 c 0,-0.94809 0.124942,-1.71612 0.374827,-2.30409 0.249884,-0.58796 0.734954,-1.23472 1.45521,-1.94028 0.8011,-0.79375 1.282495,-1.33761 1.444185,-1.6316 0.16169,-0.29398 0.242535,-0.63573 0.242535,-1.02526 0,-0.63941 -0.209462,-1.1649 -0.628386,-1.57647 -0.411575,-0.41158 -0.933392,-0.61737 -1.565453,-0.61737 -1.359666,0 -2.197514,0.90767 -2.513544,2.72301 l -2.326131,-0.35278 c 0.06615,-1.38171 0.540192,-2.51354 1.422137,-3.395487 0.889295,-0.889295 2.002751,-1.333942 3.340368,-1.333942 1.359665,0 2.491495,0.444647 3.395489,1.333942 0.903994,0.889297 1.355991,1.999077 1.355991,3.329347 0,0.67615 -0.158015,1.31924 -0.474045,1.92925 -0.316031,0.60267 -0.995864,1.42949 -2.039499,2.48047 -0.536517,0.54387 -0.870921,0.98117 -1.003213,1.3119 -0.124942,0.33073 -0.180064,0.92236 -0.165365,1.77491 z m -2.304082,13.45881 v -12.38945 h 2.546617 v 12.38945 z"
       id="text1"
       aria-label="?" />
  </g>
</svg>
